<svg width="400" height="400" viewBox="0 0 400 400" fill="none" xmlns="http://www.w3.org/2000/svg">
  <defs>
    <linearGradient id="heroGradient" x1="50" y1="50" x2="350" y2="350" gradientUnits="userSpaceOnUse">
      <stop stop-color="#f472b6" stop-opacity="0.45" />
      <stop offset="1" stop-color="#22d3ee" stop-opacity="0.2" />
    </linearGradient>
  </defs>
  <path
    d="M52.8 134.2C42.7 193.4 79.5 255.8 133 289.3C186.6 322.9 256 328.4 303 298.8C349.9 269.2 374.6 204.4 356.8 149.5C339 94.5 278.7 49.5 214 48.4C149.3 47.3 62.9 74.9 52.8 134.2Z"
    fill="url(#heroGradient)"
  />
  <circle cx="90" cy="90" r="22" fill="#f8fafc" opacity="0.4" />
  <circle cx="320" cy="110" r="16" fill="#e0f2fe" opacity="0.35" />
  <circle cx="210" cy="340" r="28" fill="#fdf2f8" opacity="0.45" />
  <path
    d="M120 210C151 250 220 270 260 240"
    stroke="#fbcfe8"
    stroke-width="12"
    stroke-linecap="round"
    opacity="0.35"
  />
  <path
    d="M150 140C180 120 240 120 280 160"
    stroke="#bae6fd"
    stroke-width="12"
    stroke-linecap="round"
    opacity="0.3"
  />
</svg>







